<svg xmlns="http://www.w3.org/2000/svg" xmlns:xlink="http://www.w3.org/1999/xlink" width="1080" zoomAndPan="magnify" viewBox="0 0 810 809.999993" height="1080" preserveAspectRatio="xMidYMid meet" version="1.0"><defs><filter x="0%" y="0%" width="100%" height="100%" id="45c5f4477b"><feColorMatrix values="0 0 0 0 1 0 0 0 0 1 0 0 0 0 1 0 0 0 1 0" color-interpolation-filters="sRGB"/></filter><clipPath id="3280f1603d"><path d="M 0 98.300781 L 810 98.300781 L 810 810 L 0 810 Z M 0 98.300781 " clip-rule="nonzero"/></clipPath><clipPath id="fd3e50c476"><path d="M 0 0 L 353.648438 0 L 353.648438 286.894531 L 0 286.894531 Z M 0 0 " clip-rule="nonzero"/></clipPath><clipPath id="99e5ad6306"><path d="M 0 61.0625 L 790.726562 61.0625 L 790.726562 437.453125 L 0 437.453125 Z M 0 61.0625 " clip-rule="nonzero"/></clipPath><clipPath id="9c756cd21d"><path d="M 0 0 L 810 0 L 810 316.683594 L 0 316.683594 Z M 0 0 " clip-rule="nonzero"/></clipPath><mask id="fcc5e75ae0"><g filter="url(#45c5f4477b)"><rect x="-81" width="972" fill="#000000" y="-80.999999" height="971.999992" fill-opacity="0.41"/></g></mask><clipPath id="256da959b8"><path d="M 0 0 L 810 0 L 810 333.046875 L 0 333.046875 Z M 0 0 " clip-rule="nonzero"/></clipPath><clipPath id="446b2eae2e"><path d="M 0 94 L 810 94 L 810 333.046875 L 0 333.046875 Z M 0 94 " clip-rule="nonzero"/></clipPath><clipPath id="52709891e2"><path d="M 0 177 L 11 177 L 11 333.046875 L 0 333.046875 Z M 0 177 " clip-rule="nonzero"/></clipPath><clipPath id="1a78e22a10"><path d="M 211 36 L 810 36 L 810 326 L 211 326 Z M 211 36 " clip-rule="nonzero"/></clipPath><clipPath id="8a337cd988"><path d="M 0 0 L 387 0 L 387 95 L 0 95 Z M 0 0 " clip-rule="nonzero"/></clipPath><clipPath id="472d30a087"><path d="M 329 322 L 810 322 L 810 333.046875 L 329 333.046875 Z M 329 322 " clip-rule="nonzero"/></clipPath><clipPath id="ca72599576"><rect x="0" width="810" y="0" height="594"/></clipPath></defs><g clip-path="url(#3280f1603d)"><path fill="#ffffff" d="M -39.164062 98.300781 L 1226.347656 98.300781 L 1226.347656 877.078125 L -39.164062 877.078125 Z M -39.164062 98.300781 " fill-opacity="1" fill-rule="nonzero"/></g><g clip-path="url(#fd3e50c476)"><path fill="#8ee4f1" d="M 353.648438 286.894531 L -487.683594 286.894531 L -487.683594 -90.308594 L 353.648438 -90.308594 Z M 353.648438 286.894531 " fill-opacity="1" fill-rule="nonzero"/></g><g clip-path="url(#99e5ad6306)"><path fill="#ffffff" d="M -48.652344 61.0625 L 790.871094 61.0625 L 790.871094 437.453125 L -48.652344 437.453125 Z M -48.652344 61.0625 " fill-opacity="1" fill-rule="nonzero"/></g><g clip-path="url(#9c756cd21d)"><path fill="#8ee4f1" d="M 819.554688 316.683594 L -31.351562 316.683594 L -31.351562 -192.269531 L 819.554688 -192.269531 Z M 819.554688 316.683594 " fill-opacity="1" fill-rule="nonzero"/></g><g mask="url(#fcc5e75ae0)"><g transform="matrix(1, 0, 0, 1, 0, 0.000000000000039746)"><g clip-path="url(#ca72599576)"><g clip-path="url(#256da959b8)"><path fill="#b6e6f7" d="M -397.144531 -140.8125 C -397.144531 -140.8125 -74.953125 -237.527344 121.238281 2.875 C 317.425781 243.277344 668.636719 -135.007812 947.628906 -35.625 L 947.628906 398.109375 C 947.628906 398.109375 743.058594 127.3125 494.273438 276.527344 C 245.492188 425.742188 -0.4375 226.789062 -135.835938 246.132812 C -271.234375 265.476562 -397.144531 409.070312 -397.144531 409.070312 Z M -397.144531 -140.8125 " fill-opacity="1" fill-rule="nonzero"/></g><g clip-path="url(#446b2eae2e)"><path fill="#ffffff" d="M -397.144531 175.027344 C -397.144531 175.027344 -273.996094 45.152344 -94.292969 175.027344 C 85.40625 304.898438 206.898438 94.890625 361.640625 94.890625 C 516.378906 94.890625 676.648438 222 762.308594 244.105469 C 847.96875 266.210938 947.539062 183.316406 947.539062 183.316406 L 947.539062 404.375 C 947.539062 404.375 856.257812 525.957031 682.175781 525.957031 C 508.089844 525.957031 527.433594 365.6875 408.613281 362.925781 C 289.796875 360.164062 190.320312 539.773438 68.734375 559.117188 C -52.847656 578.457031 -227.390625 255.160156 -397.144531 293.84375 Z M -397.144531 175.027344 " fill-opacity="1" fill-rule="nonzero"/></g><g clip-path="url(#52709891e2)"><path fill="#5bc7e4" d="M -397.144531 409.070312 C -397.144531 409.070312 -146.796875 197.132812 10.707031 280.027344 C 10.707031 280.027344 -238.445312 116.996094 -397.144531 202.65625 Z M -397.144531 409.070312 " fill-opacity="1" fill-rule="nonzero"/></g><g clip-path="url(#1a78e22a10)"><path fill="#5bc7e4" d="M 211.503906 146.195312 C 211.503906 146.195312 286.753906 68.363281 458.261719 109.261719 C 629.765625 150.15625 947.722656 199.894531 947.722656 36.773438 L 947.722656 293.382812 C 947.722656 293.382812 875.785156 364.859375 696.175781 293.382812 C 516.566406 221.910156 517.300781 117.457031 211.503906 146.195312 Z M 211.503906 146.195312 " fill-opacity="1" fill-rule="nonzero"/></g><g clip-path="url(#8a337cd988)"><path fill="#ffffff" d="M -397.144531 -140.8125 C -397.144531 -140.8125 -152.597656 -264.699219 74.261719 -90.246094 C 301.125 84.207031 386.417969 72.324219 386.417969 72.324219 C 386.417969 72.324219 262.164062 119.761719 77.027344 47.917969 C -108.109375 -23.925781 -397.144531 94.890625 -397.144531 94.890625 Z M -397.144531 -140.8125 " fill-opacity="1" fill-rule="nonzero"/></g><g clip-path="url(#472d30a087)"><path fill="#b6e6f7" d="M 329.953125 385.398438 C 329.953125 385.398438 358.96875 277.265625 508.183594 343.582031 C 657.398438 409.902344 837.285156 529.734375 947.722656 353.714844 L 947.722656 537.007812 C 947.722656 537.007812 776.308594 646.433594 596.605469 559.945312 C 416.902344 473.453125 513.710938 355.371094 329.953125 385.398438 Z M 329.953125 385.398438 " fill-opacity="1" fill-rule="nonzero"/></g></g></g></g></svg>