<svg xmlns="http://www.w3.org/2000/svg" xmlns:xlink="http://www.w3.org/1999/xlink" width="1200" zoomAndPan="magnify" viewBox="0 0 900 225" height="300" preserveAspectRatio="xMidYMid meet" version="1.0"><defs><filter x="0%" y="0%" width="100%" height="100%" id="823bac5856"><feColorMatrix values="0 0 0 0 1 0 0 0 0 1 0 0 0 0 1 0 0 0 1 0" color-interpolation-filters="sRGB"/></filter><mask id="4cf5c23ae1"><g filter="url(#823bac5856)"><rect x="-90" width="1080" fill="#000000" y="-22.5" height="270" fill-opacity="0.5"/></g></mask><clipPath id="fc0f0023da"><path d="M 0 0 L 900 0 L 900 225 L 0 225 Z M 0 0 " clip-rule="nonzero"/></clipPath><clipPath id="26b34245c1"><path d="M 0 103 L 900 103 L 900 225 L 0 225 Z M 0 103 " clip-rule="nonzero"/></clipPath><clipPath id="e1b8af86a8"><path d="M 0 180 L 202 180 L 202 225 L 0 225 Z M 0 180 " clip-rule="nonzero"/></clipPath><clipPath id="00df38a1b8"><path d="M 390 48 L 900 48 L 900 225 L 390 225 Z M 390 48 " clip-rule="nonzero"/></clipPath><clipPath id="22ed644efb"><path d="M 0 0 L 555 0 L 555 104 L 0 104 Z M 0 0 " clip-rule="nonzero"/></clipPath><clipPath id="79d8d192c4"><rect x="0" width="900" y="0" height="225"/></clipPath><clipPath id="f8141327c7"><path d="M 0 96.21875 L 900 96.21875 L 900 225 L 0 225 Z M 0 96.21875 " clip-rule="nonzero"/></clipPath></defs><rect x="-90" width="1080" fill="#ffffff" y="-22.5" height="270" fill-opacity="1"/><rect x="-90" width="1080" fill="#8ee4f1" y="-22.5" height="270" fill-opacity="1"/><g mask="url(#4cf5c23ae1)"><g transform="matrix(1, 0, 0, 1, 0, -0.000000000000008531)"><g clip-path="url(#79d8d192c4)"><g clip-path="url(#fc0f0023da)"><path fill="#d8f8fb" d="M -180.644531 -117.914062 C -180.644531 -117.914062 121.523438 -208.617188 305.519531 16.84375 C 489.515625 242.300781 818.890625 -112.472656 1080.546875 -19.265625 L 1080.546875 387.511719 C 1080.546875 387.511719 888.691406 133.546875 655.371094 273.484375 C 422.050781 413.425781 191.40625 226.839844 64.425781 244.980469 C -62.558594 263.121094 -180.644531 397.792969 -180.644531 397.792969 Z M -180.644531 -117.914062 " fill-opacity="1" fill-rule="nonzero"/></g><g clip-path="url(#26b34245c1)"><path fill="#5bc7e4" d="M -180.644531 178.292969 C -180.644531 178.292969 -65.152344 56.492188 103.382812 178.292969 C 271.914062 300.09375 385.855469 103.140625 530.976562 103.140625 C 676.101562 103.140625 826.40625 222.347656 906.742188 243.078125 C 987.082031 263.8125 1080.460938 186.066406 1080.460938 186.066406 L 1080.460938 393.386719 C 1080.460938 393.386719 994.855469 507.410156 831.589844 507.410156 C 668.328125 507.410156 686.46875 357.105469 575.035156 354.511719 C 463.597656 351.921875 370.304688 520.367188 256.28125 538.507812 C 142.253906 556.648438 -21.441406 253.445312 -180.644531 289.726562 Z M -180.644531 178.292969 " fill-opacity="1" fill-rule="nonzero"/></g><g clip-path="url(#e1b8af86a8)"><path fill="#ade9ff" d="M -180.644531 397.792969 C -180.644531 397.792969 54.144531 199.023438 201.859375 276.769531 C 201.859375 276.769531 -31.804688 123.871094 -180.644531 204.207031 Z M -180.644531 397.792969 " fill-opacity="1" fill-rule="nonzero"/></g><g clip-path="url(#00df38a1b8)"><path fill="#ade9ff" d="M 390.175781 151.253906 C 390.175781 151.253906 460.75 78.261719 621.59375 116.613281 C 782.4375 154.96875 1080.632812 201.617188 1080.632812 48.632812 L 1080.632812 289.292969 C 1080.632812 289.292969 1013.167969 356.328125 844.722656 289.292969 C 676.273438 222.261719 676.964844 124.300781 390.175781 151.253906 Z M 390.175781 151.253906 " fill-opacity="1" fill-rule="nonzero"/></g><g clip-path="url(#22ed644efb)"><path fill="#5bc7e4" d="M -180.644531 -117.914062 C -180.644531 -117.914062 48.703125 -234.101562 261.464844 -70.492188 C 474.226562 93.117188 554.214844 81.976562 554.214844 81.976562 C 554.214844 81.976562 437.683594 126.460938 264.054688 59.082031 C 90.425781 -8.296875 -180.644531 103.140625 -180.644531 103.140625 Z M -180.644531 -117.914062 " fill-opacity="1" fill-rule="nonzero"/></g></g></g></g><g clip-path="url(#f8141327c7)"><path fill="#ffffff" d="M 874.433594 106.847656 C 807.875 129.078125 760.519531 142.671875 708.203125 154.464844 C 647.769531 168.121094 604.792969 173.726562 554.214844 174.566406 C 499.578125 175.402344 456.734375 170.957031 390.242188 157.363281 C 363.4375 151.886719 332.316406 144.863281 266.148438 129.335938 C 200.496094 113.9375 159.902344 105.753906 134.777344 102.984375 C 90.125 97.957031 44.765625 101.953125 2.242188 114.644531 L -5.683594 116.964844 L -5.8125 212.835938 L -6.003906 308.773438 L 906.003906 308.773438 L 906.003906 202.464844 C 906.003906 143.960938 905.9375 96.21875 905.875 96.28125 C 905.746094 96.347656 891.636719 101.113281 874.433594 106.847656 Z M 874.433594 106.847656 " fill-opacity="1" fill-rule="nonzero"/></g></svg>