<svg xmlns="http://www.w3.org/2000/svg" xmlns:xlink="http://www.w3.org/1999/xlink" width="1200" zoomAndPan="magnify" viewBox="0 0 900 225" height="300" preserveAspectRatio="xMidYMid meet" version="1.0"><path fill="#8ee4f1" d="M 0.015625 160.199219 L 30.015625 146.871094 C 60.015625 133.292969 120.011719 107.007812 180.011719 80.101562 C 240.007812 53.191406 300.003906 26.910156 360.003906 43.367188 C 420 60.074219 480 120.148438 539.996094 123.464844 C 599.992188 127.035156 659.992188 73.214844 719.988281 60.074219 C 779.988281 46.933594 839.984375 73.214844 869.984375 86.796875 L 899.980469 100.125 L 899.980469 0 L 869.984375 0 C 839.984375 0 779.988281 0 719.988281 0 C 659.992188 0 599.992188 0 539.996094 0 C 480 0 420 0 360.003906 0 C 300.003906 0 240.007812 0 180.011719 0 C 120.011719 0 60.015625 0 30.015625 0 L 0.015625 0 Z M 0.015625 160.199219 " fill-opacity="1" fill-rule="nonzero"/></svg>