<svg xmlns="http://www.w3.org/2000/svg" xmlns:xlink="http://www.w3.org/1999/xlink" width="1200" zoomAndPan="magnify" viewBox="0 0 900 225" height="300" preserveAspectRatio="xMidYMid meet" version="1.0"><path fill="#8ee4f1" d="M 0.015625 45.023438 L 30.015625 58.355469 C 60.015625 71.933594 120.011719 98.214844 180.011719 121.808594 C 240.007812 145.148438 300.003906 165.175781 360.003906 155.164062 C 420 145.148438 480 105.101562 539.996094 111.796875 C 599.992188 118.242188 659.992188 172.058594 719.988281 175.1875 C 779.988281 178.316406 839.984375 132.007812 869.984375 108.417969 L 899.980469 85.074219 L 899.980469 225.25 L 869.984375 225.25 C 839.984375 225.25 779.988281 225.25 719.988281 225.25 C 659.992188 225.25 599.992188 225.25 539.996094 225.25 C 480 225.25 420 225.25 360.003906 225.25 C 300.003906 225.25 240.007812 225.25 180.011719 225.25 C 120.011719 225.25 60.015625 225.25 30.015625 225.25 L 0.015625 225.25 Z M 0.015625 45.023438 " fill-opacity="1" fill-rule="nonzero"/></svg>