<svg xmlns="http://www.w3.org/2000/svg" xmlns:xlink="http://www.w3.org/1999/xlink" width="1080" zoomAndPan="magnify" viewBox="0 0 810 1439.999935" height="1920" preserveAspectRatio="xMidYMid meet" version="1.0"><defs><clipPath id="64d7da2971"><path d="M 283.5 56.25 L 526.5 56.25 L 526.5 1396.515625 L 283.5 1396.515625 Z M 283.5 56.25 " clip-rule="nonzero"/></clipPath></defs><g clip-path="url(#64d7da2971)"><path fill="#ffffff" d="M 283.5 56.25 L 526.5 56.25 L 526.5 1396.546875 L 283.5 1396.546875 Z M 283.5 56.25 " fill-opacity="1" fill-rule="nonzero"/></g><path fill="#0cc0df" d="M 312.238281 1388.246094 C 312.796875 1359.289062 327.5 1342.316406 345.5 1321.746094 C 360.558594 1304.535156 370.460938 1285.589844 371.40625 1262.328125 C 372.429688 1237.140625 363.472656 1215.890625 347.308594 1197.023438 C 331.214844 1178.273438 314.808594 1162.308594 312.539062 1136.25 C 310.097656 1108.15625 321.871094 1088.132812 339.964844 1068.09375 C 355.476562 1050.914062 368.082031 1033.699219 370.816406 1010.03125 C 373.601562 985.898438 367.414062 962.832031 352.558594 943.683594 C 337.910156 924.792969 318.910156 909.949219 313.808594 885.308594 C 307.953125 857.042969 317.835938 833.105469 336.273438 812.394531 C 350.613281 796.292969 364.863281 780.671875 369.460938 758.855469 C 374.679688 734.054688 370.125 708.039062 355.238281 687.433594 C 342.453125 669.726562 323.949219 655.992188 316.402344 634.851562 C 306.738281 607.804688 313.691406 579.246094 331.742188 557.773438 C 345.671875 541.183594 361.355469 526.78125 367.832031 505.394531 C 374.832031 482.339844 372.246094 455.449219 359.921875 434.675781 C 348.5 415.441406 329.191406 402.039062 319.265625 381.824219 C 305.207031 353.191406 312.59375 320.285156 332.636719 296.90625 C 348.75 278.113281 365.714844 261.355469 370.082031 235.863281 C 374.691406 208.964844 367.855469 183.21875 350.847656 162.089844 C 331.902344 138.546875 312.863281 121.917969 312.238281 89.269531 C 312.085938 80.960938 299.160156 80.929688 299.320312 89.269531 C 299.792969 114.328125 308.996094 134.113281 325.304688 152.679688 C 341.9375 171.605469 357.351562 188.613281 358.480469 215.210938 C 359.726562 244.5625 345.550781 262.949219 327.136719 283.644531 C 312.152344 300.46875 301.410156 318.382812 299.613281 341.308594 C 297.738281 365.453125 304.84375 387.433594 319.957031 406.195312 C 335.242188 425.171875 353.570312 440.292969 357.617188 465.761719 C 362.148438 494.167969 351.140625 516.835938 332.679688 537.351562 C 317.039062 554.746094 303.390625 571.722656 300.214844 595.738281 C 297.039062 619.792969 302.582031 643.171875 317.230469 662.503906 C 330.503906 680.03125 348.738281 694.066406 355.378906 715.851562 C 364.066406 744.386719 355.304688 771.394531 336.347656 793.0625 C 322.3125 809.109375 307.554688 824.105469 302.097656 845.417969 C 295.972656 869.304688 299.503906 895.953125 313.152344 916.609375 C 325.1875 934.800781 343.917969 948.214844 352.796875 968.535156 C 364.054688 994.304688 358.890625 1024.820312 341.710938 1046.519531 C 328.0625 1063.742188 311.375 1077.695312 303.9375 1099.082031 C 295.015625 1124.742188 298.578125 1155.097656 313.9375 1177.539062 C 328.070312 1198.183594 349.761719 1213.199219 356.242188 1238.507812 C 364.410156 1270.347656 351.570312 1295.78125 330.828125 1318.730469 C 312.164062 1339.386719 299.871094 1359.535156 299.320312 1388.246094 C 299.160156 1396.566406 312.085938 1396.566406 312.238281 1388.246094 " fill-opacity="1" fill-rule="nonzero"/><path fill="#0cc0df" d="M 382.257812 1388.246094 C 382.804688 1359.289062 397.519531 1342.316406 415.507812 1321.746094 C 430.566406 1304.535156 440.480469 1285.589844 441.417969 1262.328125 C 442.4375 1237.140625 433.492188 1215.890625 417.316406 1197.023438 C 401.222656 1178.273438 384.820312 1162.308594 382.546875 1136.25 C 380.105469 1108.15625 391.878906 1088.132812 409.976562 1068.09375 C 425.484375 1050.914062 438.089844 1033.699219 440.824219 1010.03125 C 443.613281 985.898438 437.421875 962.832031 422.570312 943.683594 C 407.917969 924.792969 388.921875 909.949219 383.816406 885.308594 C 377.960938 857.042969 387.855469 833.105469 406.28125 812.394531 C 420.621094 796.292969 434.871094 780.671875 439.46875 758.855469 C 444.6875 734.054688 440.136719 708.039062 425.25 687.433594 C 412.460938 669.726562 393.957031 655.992188 386.414062 634.851562 C 376.746094 607.804688 383.699219 579.246094 401.75 557.773438 C 415.679688 541.183594 431.363281 526.78125 437.851562 505.394531 C 444.839844 482.339844 442.253906 455.449219 429.929688 434.675781 C 418.511719 415.441406 399.199219 402.039062 389.277344 381.824219 C 375.21875 353.191406 382.601562 320.285156 402.644531 296.90625 C 418.757812 278.113281 435.734375 261.355469 440.101562 235.863281 C 444.710938 208.964844 437.863281 183.21875 420.855469 162.089844 C 401.914062 138.546875 382.882812 121.917969 382.257812 89.269531 C 382.097656 80.960938 369.167969 80.929688 369.328125 89.269531 C 369.804688 114.328125 379.007812 134.113281 395.3125 152.679688 C 411.945312 171.605469 427.359375 188.613281 428.488281 215.210938 C 429.738281 244.5625 415.570312 262.949219 397.144531 283.644531 C 382.171875 300.46875 371.417969 318.382812 369.632812 341.308594 C 367.746094 365.453125 374.851562 387.433594 389.964844 406.195312 C 405.25 425.171875 423.582031 440.292969 427.628906 465.761719 C 432.160156 494.167969 421.148438 516.835938 402.6875 537.351562 C 387.046875 554.746094 373.398438 571.722656 370.222656 595.738281 C 367.046875 619.792969 372.589844 643.171875 387.242188 662.503906 C 400.523438 680.03125 418.746094 694.066406 425.386719 715.851562 C 434.085938 744.386719 425.324219 771.394531 406.367188 793.0625 C 392.332031 809.109375 377.5625 824.105469 372.105469 845.417969 C 365.980469 869.304688 369.511719 895.953125 383.171875 916.609375 C 395.207031 934.800781 413.925781 948.214844 422.804688 968.535156 C 434.074219 994.304688 428.910156 1024.820312 411.71875 1046.519531 C 398.082031 1063.742188 381.386719 1077.695312 373.949219 1099.082031 C 365.023438 1124.742188 368.585938 1155.097656 383.949219 1177.539062 C 398.089844 1198.183594 419.769531 1213.199219 426.25 1238.507812 C 434.417969 1270.347656 421.578125 1295.78125 400.847656 1318.730469 C 382.171875 1339.386719 369.878906 1359.535156 369.328125 1388.246094 C 369.167969 1396.566406 382.097656 1396.566406 382.257812 1388.246094 " fill-opacity="1" fill-rule="nonzero"/><path fill="#0cc0df" d="M 452.265625 1388.246094 C 452.816406 1359.289062 467.53125 1342.316406 485.515625 1321.746094 C 500.574219 1304.535156 510.488281 1285.589844 511.425781 1262.328125 C 512.449219 1237.140625 503.503906 1215.890625 487.324219 1197.023438 C 471.242188 1178.273438 454.839844 1162.308594 452.566406 1136.25 C 450.125 1108.15625 461.890625 1088.132812 479.996094 1068.09375 C 495.496094 1050.914062 508.109375 1033.699219 510.84375 1010.03125 C 513.621094 985.898438 507.441406 962.832031 492.589844 943.683594 C 477.925781 924.792969 458.929688 909.949219 453.828125 885.308594 C 447.972656 857.042969 457.863281 833.105469 476.300781 812.394531 C 490.628906 796.292969 504.890625 780.671875 509.476562 758.855469 C 514.699219 734.054688 510.144531 708.039062 495.257812 687.433594 C 482.480469 669.726562 463.976562 655.992188 456.421875 634.851562 C 446.765625 607.804688 453.707031 579.246094 471.761719 557.773438 C 485.699219 541.183594 501.371094 526.78125 507.863281 505.394531 C 514.859375 482.339844 512.265625 455.449219 499.941406 434.675781 C 488.519531 415.441406 469.21875 402.039062 459.296875 381.824219 C 445.226562 353.191406 452.621094 320.285156 472.652344 296.90625 C 488.765625 278.113281 505.742188 261.355469 510.113281 235.863281 C 514.71875 208.964844 507.871094 183.21875 490.867188 162.089844 C 471.921875 138.546875 452.890625 121.917969 452.265625 89.269531 C 452.105469 80.960938 439.175781 80.929688 439.339844 89.269531 C 439.8125 114.328125 449.015625 134.113281 465.324219 152.679688 C 481.953125 171.605469 497.367188 188.613281 498.496094 215.210938 C 499.746094 244.5625 485.582031 262.949219 467.152344 283.644531 C 452.179688 300.46875 441.425781 318.382812 439.640625 341.308594 C 437.757812 365.453125 444.859375 387.433594 459.972656 406.195312 C 475.269531 425.171875 493.589844 440.292969 497.648438 465.761719 C 502.167969 494.167969 491.15625 516.835938 472.707031 537.351562 C 457.054688 554.746094 443.40625 571.722656 440.230469 595.738281 C 437.058594 619.792969 442.601562 643.171875 457.25 662.503906 C 470.53125 680.03125 488.757812 694.066406 495.398438 715.851562 C 504.09375 744.386719 495.332031 771.394531 476.378906 793.0625 C 462.339844 809.109375 447.582031 824.105469 442.117188 845.417969 C 435.992188 869.304688 439.53125 895.953125 453.179688 916.609375 C 465.214844 934.800781 483.933594 948.214844 492.824219 968.535156 C 504.085938 994.304688 498.917969 1024.820312 481.726562 1046.519531 C 468.089844 1063.742188 451.394531 1077.695312 443.957031 1099.082031 C 435.03125 1124.742188 438.597656 1155.097656 453.957031 1177.539062 C 468.101562 1198.183594 489.777344 1213.199219 496.269531 1238.507812 C 504.429688 1270.347656 491.585938 1295.78125 470.855469 1318.730469 C 452.179688 1339.386719 439.886719 1359.535156 439.339844 1388.246094 C 439.175781 1396.566406 452.105469 1396.566406 452.265625 1388.246094 " fill-opacity="1" fill-rule="nonzero"/></svg>