<?xml version="1.0" standalone="no"?><svg xmlns="http://www.w3.org/2000/svg" viewBox="0 0 1440 320"><path fill="#C0F2F7" fill-opacity="1" d="M0,192L30,165.3C60,139,120,85,180,90.7C240,96,300,160,360,176C420,192,480,160,540,128C600,96,660,64,720,53.3C780,43,840,53,900,85.3C960,117,1020,171,1080,197.3C1140,224,1200,224,1260,192C1320,160,1380,96,1410,64L1440,32L1440,0L1410,0C1380,0,1320,0,1260,0C1200,0,1140,0,1080,0C1020,0,960,0,900,0C840,0,780,0,720,0C660,0,600,0,540,0C480,0,420,0,360,0C300,0,240,0,180,0C120,0,60,0,30,0L0,0Z"></path></svg>