<svg xmlns="http://www.w3.org/2000/svg" xmlns:xlink="http://www.w3.org/1999/xlink" width="500" zoomAndPan="magnify" viewBox="0 0 375 374.999991" height="500" preserveAspectRatio="xMidYMid meet" version="1.0"><defs><filter x="0%" y="0%" width="100%" height="100%" id="cba039b8e0"><feColorMatrix values="0 0 0 0 1 0 0 0 0 1 0 0 0 0 1 0 0 0 1 0" color-interpolation-filters="sRGB"/></filter><g/><mask id="947f7ae900"><g filter="url(#cba039b8e0)"><rect x="-37.5" width="450" fill="#000000" y="-37.499999" height="449.999989" fill-opacity="0.29"/></g></mask><clipPath id="771747ce57"><path d="M 0.921875 0.292969 L 225.722656 0.292969 L 225.722656 106.691406 L 0.921875 106.691406 Z M 0.921875 0.292969 " clip-rule="nonzero"/></clipPath><clipPath id="97e798ceba"><path d="M 8.082031 0.292969 L 220.226562 0.292969 L 220.226562 106.691406 L 8.082031 106.691406 Z M 8.082031 0.292969 " clip-rule="nonzero"/></clipPath><clipPath id="8d63ab7bac"><path d="M 81.820312 0.292969 L 225.238281 0.292969 L 225.238281 106.691406 L 81.820312 106.691406 Z M 81.820312 0.292969 " clip-rule="nonzero"/></clipPath><clipPath id="2a877c6457"><path d="M 45.070312 101.472656 L 60 101.472656 L 60 106.691406 L 45.070312 106.691406 Z M 45.070312 101.472656 " clip-rule="nonzero"/></clipPath><clipPath id="45b020022f"><path d="M 213 0.292969 L 223 0.292969 L 223 6 L 213 6 Z M 213 0.292969 " clip-rule="nonzero"/></clipPath><clipPath id="516157803e"><rect x="0" width="227" y="0" height="107"/></clipPath></defs><g mask="url(#947f7ae900)"><g transform="matrix(1, 0, 0, 1, 79, 134)"><g clip-path="url(#516157803e)"><g clip-path="url(#771747ce57)"><path fill="#0cc0df" d="M 225.726562 0.292969 L 96.121094 106.691406 L 0.921875 106.691406 L 219.035156 0.292969 L 225.726562 0.292969 " fill-opacity="1" fill-rule="nonzero"/></g><g clip-path="url(#97e798ceba)"><path fill="#ffffff" d="M 220.039062 0.292969 L 15.1875 106.691406 L 8.3125 106.691406 L 219.554688 0.292969 L 220.039062 0.292969 " fill-opacity="1" fill-rule="nonzero"/></g><g clip-path="url(#8d63ab7bac)"><path fill="#ffffff" d="M 225.214844 0.292969 L 88.816406 106.691406 L 81.945312 106.691406 L 224.730469 0.292969 L 225.214844 0.292969 " fill-opacity="1" fill-rule="nonzero"/></g><g clip-path="url(#2a877c6457)"><path fill="#ffffff" d="M 59.96875 101.644531 L 51.957031 106.691406 L 45.085938 106.691406 L 53.425781 101.644531 L 59.96875 101.644531 " fill-opacity="1" fill-rule="nonzero"/></g><path fill="#ffffff" d="M 70.695312 94.886719 L 62.679688 99.933594 L 56.253906 99.933594 L 64.613281 94.886719 L 70.695312 94.886719 " fill-opacity="1" fill-rule="nonzero"/><path fill="#ffffff" d="M 81.429688 88.128906 L 73.410156 93.179688 L 67.449219 93.179688 L 75.824219 88.128906 L 81.429688 88.128906 " fill-opacity="1" fill-rule="nonzero"/><path fill="#ffffff" d="M 92.171875 81.375 L 84.144531 86.421875 L 78.664062 86.421875 L 87.050781 81.375 L 92.171875 81.375 " fill-opacity="1" fill-rule="nonzero"/><path fill="#ffffff" d="M 102.929688 74.617188 L 94.894531 79.664062 L 89.894531 79.664062 L 98.292969 74.617188 L 102.929688 74.617188 " fill-opacity="1" fill-rule="nonzero"/><path fill="#ffffff" d="M 113.703125 67.859375 L 105.65625 72.90625 L 101.136719 72.90625 L 109.542969 67.859375 L 113.703125 67.859375 " fill-opacity="1" fill-rule="nonzero"/><path fill="#ffffff" d="M 124.492188 61.105469 L 116.429688 66.152344 L 112.394531 66.152344 L 120.804688 61.105469 L 124.492188 61.105469 " fill-opacity="1" fill-rule="nonzero"/><path fill="#ffffff" d="M 135.300781 54.347656 L 127.226562 59.394531 L 123.65625 59.394531 L 132.074219 54.347656 L 135.300781 54.347656 " fill-opacity="1" fill-rule="nonzero"/><path fill="#ffffff" d="M 146.128906 47.589844 L 138.039062 52.636719 L 134.925781 52.636719 L 143.34375 47.589844 L 146.128906 47.589844 " fill-opacity="1" fill-rule="nonzero"/><path fill="#ffffff" d="M 156.980469 40.832031 L 148.875 45.878906 L 146.195312 45.878906 L 154.617188 40.832031 L 156.980469 40.832031 " fill-opacity="1" fill-rule="nonzero"/><path fill="#ffffff" d="M 167.855469 34.078125 L 159.730469 39.125 L 157.46875 39.125 L 165.882812 34.078125 L 167.855469 34.078125 " fill-opacity="1" fill-rule="nonzero"/><path fill="#ffffff" d="M 178.753906 27.320312 L 170.609375 32.367188 L 168.734375 32.367188 L 177.152344 27.320312 L 178.753906 27.320312 " fill-opacity="1" fill-rule="nonzero"/><path fill="#ffffff" d="M 189.683594 20.5625 L 181.519531 25.609375 L 180 25.609375 L 188.410156 20.5625 L 189.683594 20.5625 " fill-opacity="1" fill-rule="nonzero"/><path fill="#ffffff" d="M 200.632812 13.808594 L 192.449219 18.851562 L 191.257812 18.851562 L 199.664062 13.808594 L 200.632812 13.808594 " fill-opacity="1" fill-rule="nonzero"/><path fill="#ffffff" d="M 211.613281 7.050781 L 203.410156 12.097656 L 202.507812 12.097656 L 210.90625 7.050781 L 211.613281 7.050781 " fill-opacity="1" fill-rule="nonzero"/><g clip-path="url(#45b020022f)"><path fill="#ffffff" d="M 222.621094 0.292969 L 214.398438 5.339844 L 213.75 5.339844 L 222.140625 0.292969 L 222.621094 0.292969 " fill-opacity="1" fill-rule="nonzero"/></g></g></g></g><g fill="#0097b2" fill-opacity="1"><g transform="translate(44.062362, 187.271684)"><g><path d="M 20.234375 -30.453125 L 12.9375 -13.671875 L 7.46875 -29.984375 L 2.046875 -29.984375 L 12.390625 0.6875 L 20.234375 -17.359375 L 28.078125 0.6875 L 38.328125 -29.984375 L 32.90625 -29.984375 L 27.484375 -13.765625 Z M 20.234375 -30.453125 "/></g></g></g><g fill="#0097b2" fill-opacity="1"><g transform="translate(84.43788, 187.271684)"><g><path d="M 21.734375 -4.109375 L 23.5625 0 L 29.171875 0 L 15.953125 -29.984375 L 2.046875 0 L 7.703125 0 L 9.609375 -4.109375 Z M 19.46875 -9.25 L 11.984375 -9.25 L 15.8125 -17.546875 Z M 19.46875 -9.25 "/></g></g></g><g fill="#0097b2" fill-opacity="1"><g transform="translate(115.653719, 187.271684)"><g><path d="M 8.0625 -29.984375 L 1.953125 -29.984375 L 14.453125 -10.03125 L 14.453125 0 L 19.546875 0 L 19.546875 -10.03125 L 32.171875 -29.984375 L 26.03125 -29.984375 L 17 -15.453125 Z M 8.0625 -29.984375 "/></g></g></g><g fill="#0097b2" fill-opacity="1"><g transform="translate(149.786075, 187.271684)"><g/></g></g><g fill="#322f30" fill-opacity="1"><g transform="translate(163.460943, 187.271684)"><g><path d="M 25.4375 -8.609375 C 25.4375 -10.078125 24.984375 -11.484375 24.109375 -12.8125 C 23.25 -14.078125 22.0625 -15.171875 20.5625 -16.046875 C 19.234375 -16.6875 17.234375 -17.1875 14.546875 -17.546875 C 12.578125 -17.78125 11.21875 -18.046875 10.484375 -18.40625 C 9.75 -18.6875 9.15625 -19.140625 8.703125 -19.6875 C 8.25 -20.234375 8.0625 -20.828125 8.0625 -21.421875 C 8.0625 -22.234375 8.5625 -23.0625 9.578125 -23.84375 C 10.15625 -24.25 10.84375 -24.5625 11.671875 -24.84375 C 12.484375 -25.0625 13.3125 -25.203125 14.171875 -25.203125 C 14.953125 -25.203125 15.765625 -25.0625 16.6875 -24.84375 C 17.59375 -24.515625 18.40625 -24.0625 19.140625 -23.46875 C 19.875 -22.875 20.234375 -22.203125 20.28125 -21.46875 L 24.890625 -24.109375 C 24.25 -25.65625 23.25 -26.9375 21.828125 -27.984375 C 20.78125 -28.71875 19.59375 -29.3125 18.28125 -29.71875 C 16.953125 -30.125 15.59375 -30.359375 14.171875 -30.359375 C 12.71875 -30.359375 11.34375 -30.125 10.03125 -29.71875 C 8.703125 -29.3125 7.515625 -28.71875 6.515625 -27.984375 C 5.375 -27.125 4.515625 -26.109375 3.875 -24.984375 C 3.234375 -23.84375 2.96875 -22.65625 2.96875 -21.421875 C 2.96875 -19.828125 3.421875 -18.375 4.328125 -17 C 5.234375 -15.640625 6.421875 -14.578125 7.890625 -13.90625 C 9.34375 -13.21875 11.296875 -12.765625 13.8125 -12.484375 C 16 -12.21875 17.453125 -11.890625 18.09375 -11.53125 C 18.734375 -11.171875 19.28125 -10.703125 19.6875 -10.203125 C 20.046875 -9.65625 20.28125 -9.15625 20.28125 -8.609375 C 20.28125 -7.796875 19.78125 -6.96875 18.78125 -6.203125 C 18.140625 -5.75 17.453125 -5.421875 16.640625 -5.203125 C 15.8125 -4.921875 15 -4.828125 14.171875 -4.828125 C 13.3125 -4.828125 12.484375 -4.921875 11.671875 -5.203125 C 10.84375 -5.421875 10.15625 -5.75 9.578125 -6.203125 C 9.109375 -6.46875 8.796875 -6.796875 8.515625 -7.203125 C 8.25 -7.5625 8.0625 -8.015625 8.0625 -8.484375 L 3.515625 -5.875 C 4.0625 -4.375 5.0625 -3.09375 6.515625 -2.046875 C 7.515625 -1.28125 8.703125 -0.6875 10.03125 -0.28125 C 11.34375 0.140625 12.71875 0.3125 14.171875 0.3125 C 15.59375 0.3125 16.953125 0.140625 18.28125 -0.28125 C 19.59375 -0.6875 20.78125 -1.28125 21.828125 -2.046875 C 22.96875 -2.875 23.84375 -3.875 24.46875 -5.015625 C 25.109375 -6.15625 25.4375 -7.34375 25.4375 -8.609375 Z M 25.4375 -8.609375 "/></g></g></g><g fill="#322f30" fill-opacity="1"><g transform="translate(192.079259, 187.271684)"><g><path d="M 8.0625 -29.984375 L 1.953125 -29.984375 L 14.453125 -10.03125 L 14.453125 0 L 19.546875 0 L 19.546875 -10.03125 L 32.171875 -29.984375 L 26.03125 -29.984375 L 17 -15.453125 Z M 8.0625 -29.984375 "/></g></g></g><g fill="#322f30" fill-opacity="1"><g transform="translate(226.211614, 187.271684)"><g><path d="M 25.4375 -8.609375 C 25.4375 -10.078125 24.984375 -11.484375 24.109375 -12.8125 C 23.25 -14.078125 22.0625 -15.171875 20.5625 -16.046875 C 19.234375 -16.6875 17.234375 -17.1875 14.546875 -17.546875 C 12.578125 -17.78125 11.21875 -18.046875 10.484375 -18.40625 C 9.75 -18.6875 9.15625 -19.140625 8.703125 -19.6875 C 8.25 -20.234375 8.0625 -20.828125 8.0625 -21.421875 C 8.0625 -22.234375 8.5625 -23.0625 9.578125 -23.84375 C 10.15625 -24.25 10.84375 -24.5625 11.671875 -24.84375 C 12.484375 -25.0625 13.3125 -25.203125 14.171875 -25.203125 C 14.953125 -25.203125 15.765625 -25.0625 16.6875 -24.84375 C 17.59375 -24.515625 18.40625 -24.0625 19.140625 -23.46875 C 19.875 -22.875 20.234375 -22.203125 20.28125 -21.46875 L 24.890625 -24.109375 C 24.25 -25.65625 23.25 -26.9375 21.828125 -27.984375 C 20.78125 -28.71875 19.59375 -29.3125 18.28125 -29.71875 C 16.953125 -30.125 15.59375 -30.359375 14.171875 -30.359375 C 12.71875 -30.359375 11.34375 -30.125 10.03125 -29.71875 C 8.703125 -29.3125 7.515625 -28.71875 6.515625 -27.984375 C 5.375 -27.125 4.515625 -26.109375 3.875 -24.984375 C 3.234375 -23.84375 2.96875 -22.65625 2.96875 -21.421875 C 2.96875 -19.828125 3.421875 -18.375 4.328125 -17 C 5.234375 -15.640625 6.421875 -14.578125 7.890625 -13.90625 C 9.34375 -13.21875 11.296875 -12.765625 13.8125 -12.484375 C 16 -12.21875 17.453125 -11.890625 18.09375 -11.53125 C 18.734375 -11.171875 19.28125 -10.703125 19.6875 -10.203125 C 20.046875 -9.65625 20.28125 -9.15625 20.28125 -8.609375 C 20.28125 -7.796875 19.78125 -6.96875 18.78125 -6.203125 C 18.140625 -5.75 17.453125 -5.421875 16.640625 -5.203125 C 15.8125 -4.921875 15 -4.828125 14.171875 -4.828125 C 13.3125 -4.828125 12.484375 -4.921875 11.671875 -5.203125 C 10.84375 -5.421875 10.15625 -5.75 9.578125 -6.203125 C 9.109375 -6.46875 8.796875 -6.796875 8.515625 -7.203125 C 8.25 -7.5625 8.0625 -8.015625 8.0625 -8.484375 L 3.515625 -5.875 C 4.0625 -4.375 5.0625 -3.09375 6.515625 -2.046875 C 7.515625 -1.28125 8.703125 -0.6875 10.03125 -0.28125 C 11.34375 0.140625 12.71875 0.3125 14.171875 0.3125 C 15.59375 0.3125 16.953125 0.140625 18.28125 -0.28125 C 19.59375 -0.6875 20.78125 -1.28125 21.828125 -2.046875 C 22.96875 -2.875 23.84375 -3.875 24.46875 -5.015625 C 25.109375 -6.15625 25.4375 -7.34375 25.4375 -8.609375 Z M 25.4375 -8.609375 "/></g></g></g><g fill="#322f30" fill-opacity="1"><g transform="translate(254.82993, 187.271684)"><g><path d="M 2.234375 -29.984375 L 2.234375 -24.84375 L 11.21875 -24.84375 L 11.21875 0 L 16.3125 0 L 16.3125 -24.84375 L 25.34375 -24.84375 L 25.34375 -29.984375 Z M 2.234375 -29.984375 "/></g></g></g><g fill="#322f30" fill-opacity="1"><g transform="translate(282.400132, 187.271684)"><g><path d="M 3.734375 -29.984375 L 3.734375 0 L 22.703125 0 L 22.703125 -5.109375 L 8.890625 -5.109375 L 8.890625 -12.4375 L 19.28125 -12.4375 L 19.28125 -17.59375 L 8.890625 -17.59375 L 8.890625 -24.84375 L 22.703125 -24.84375 L 22.703125 -29.984375 Z M 3.734375 -29.984375 "/></g></g></g><g fill="#322f30" fill-opacity="1"><g transform="translate(308.785484, 187.271684)"><g><path d="M 29.484375 -14.453125 L 29.484375 0 L 34.59375 0 L 34.59375 -30.453125 L 19.234375 -8.9375 L 3.78125 -30.453125 L 3.78125 0 L 8.890625 0 L 8.890625 -14.5 L 19.234375 -0.140625 Z M 29.484375 -14.453125 "/></g></g></g><g fill="#322f30" fill-opacity="1"><g transform="translate(47.703897, 208.388577)"><g><path d="M 5.65625 0.15625 C 4.6875 0.15625 3.8125 -0.0507812 3.03125 -0.46875 C 2.25 -0.882812 1.632812 -1.460938 1.1875 -2.203125 C 0.75 -2.953125 0.53125 -3.796875 0.53125 -4.734375 C 0.53125 -5.671875 0.75 -6.507812 1.1875 -7.25 C 1.632812 -7.988281 2.25 -8.566406 3.03125 -8.984375 C 3.8125 -9.410156 4.6875 -9.625 5.65625 -9.625 C 6.476562 -9.625 7.21875 -9.476562 7.875 -9.1875 C 8.539062 -8.90625 9.101562 -8.492188 9.5625 -7.953125 L 8.15625 -6.65625 C 7.507812 -7.394531 6.710938 -7.765625 5.765625 -7.765625 C 5.179688 -7.765625 4.660156 -7.632812 4.203125 -7.375 C 3.742188 -7.113281 3.382812 -6.753906 3.125 -6.296875 C 2.875 -5.835938 2.75 -5.316406 2.75 -4.734375 C 2.75 -4.148438 2.875 -3.625 3.125 -3.15625 C 3.382812 -2.695312 3.742188 -2.335938 4.203125 -2.078125 C 4.660156 -1.828125 5.179688 -1.703125 5.765625 -1.703125 C 6.710938 -1.703125 7.507812 -2.078125 8.15625 -2.828125 L 9.5625 -1.53125 C 9.101562 -0.976562 8.539062 -0.554688 7.875 -0.265625 C 7.207031 0.015625 6.46875 0.15625 5.65625 0.15625 Z M 5.65625 0.15625 "/></g></g></g><g fill="#322f30" fill-opacity="1"><g transform="translate(60.703346, 208.388577)"><g><path d="M 7.359375 -2.03125 L 2.953125 -2.03125 L 2.125 0 L -0.125 0 L 4.09375 -9.46875 L 6.25 -9.46875 L 10.484375 0 L 8.1875 0 Z M 6.65625 -3.6875 L 5.15625 -7.3125 L 3.65625 -3.6875 Z M 6.65625 -3.6875 "/></g></g></g><g fill="#322f30" fill-opacity="1"><g transform="translate(74.148715, 208.388577)"><g><path d="M 9.734375 0 L 9.71875 -5.671875 L 6.9375 -1 L 5.953125 -1 L 3.171875 -5.5625 L 3.171875 0 L 1.125 0 L 1.125 -9.46875 L 2.9375 -9.46875 L 6.46875 -3.578125 L 9.96875 -9.46875 L 11.765625 -9.46875 L 11.78125 0 Z M 9.734375 0 "/></g></g></g><g fill="#322f30" fill-opacity="1"><g transform="translate(90.148032, 208.388577)"><g><path d="M 1.125 -9.46875 L 3.3125 -9.46875 L 3.3125 0 L 1.125 0 Z M 1.125 -9.46875 "/></g></g></g><g fill="#322f30" fill-opacity="1"><g transform="translate(97.674749, 208.388577)"><g><path d="M 9.796875 -9.46875 L 9.796875 0 L 8 0 L 3.28125 -5.75 L 3.28125 0 L 1.125 0 L 1.125 -9.46875 L 2.9375 -9.46875 L 7.640625 -3.71875 L 7.640625 -9.46875 Z M 9.796875 -9.46875 "/></g></g></g><g fill="#322f30" fill-opacity="1"><g transform="translate(111.687672, 208.388577)"><g><path d="M 9.796875 -9.46875 L 9.796875 0 L 7.609375 0 L 7.609375 -3.875 L 3.3125 -3.875 L 3.3125 0 L 1.125 0 L 1.125 -9.46875 L 3.3125 -9.46875 L 3.3125 -5.734375 L 7.609375 -5.734375 L 7.609375 -9.46875 Z M 9.796875 -9.46875 "/></g></g></g><g fill="#322f30" fill-opacity="1"><g transform="translate(125.700592, 208.388577)"><g><path d="M 5.703125 0.15625 C 4.722656 0.15625 3.835938 -0.0507812 3.046875 -0.46875 C 2.253906 -0.894531 1.632812 -1.476562 1.1875 -2.21875 C 0.75 -2.96875 0.53125 -3.804688 0.53125 -4.734375 C 0.53125 -5.660156 0.75 -6.492188 1.1875 -7.234375 C 1.632812 -7.984375 2.253906 -8.566406 3.046875 -8.984375 C 3.835938 -9.410156 4.722656 -9.625 5.703125 -9.625 C 6.679688 -9.625 7.5625 -9.410156 8.34375 -8.984375 C 9.132812 -8.566406 9.753906 -7.984375 10.203125 -7.234375 C 10.648438 -6.492188 10.875 -5.660156 10.875 -4.734375 C 10.875 -3.804688 10.648438 -2.96875 10.203125 -2.21875 C 9.753906 -1.476562 9.132812 -0.894531 8.34375 -0.46875 C 7.5625 -0.0507812 6.679688 0.15625 5.703125 0.15625 Z M 5.703125 -1.703125 C 6.265625 -1.703125 6.769531 -1.828125 7.21875 -2.078125 C 7.664062 -2.335938 8.015625 -2.695312 8.265625 -3.15625 C 8.523438 -3.625 8.65625 -4.148438 8.65625 -4.734375 C 8.65625 -5.316406 8.523438 -5.835938 8.265625 -6.296875 C 8.015625 -6.753906 7.664062 -7.113281 7.21875 -7.375 C 6.769531 -7.632812 6.265625 -7.765625 5.703125 -7.765625 C 5.140625 -7.765625 4.632812 -7.632812 4.1875 -7.375 C 3.738281 -7.113281 3.382812 -6.753906 3.125 -6.296875 C 2.875 -5.835938 2.75 -5.316406 2.75 -4.734375 C 2.75 -4.148438 2.875 -3.625 3.125 -3.15625 C 3.382812 -2.695312 3.738281 -2.335938 4.1875 -2.078125 C 4.632812 -1.828125 5.140625 -1.703125 5.703125 -1.703125 Z M 5.703125 -1.703125 "/></g></g></g><g fill="#322f30" fill-opacity="1"><g transform="translate(140.199968, 208.388577)"><g/></g></g><g fill="#322f30" fill-opacity="1"><g transform="translate(147.118597, 208.388577)"><g><path d="M 5.21875 -9.46875 C 6.050781 -9.46875 6.773438 -9.328125 7.390625 -9.046875 C 8.015625 -8.765625 8.492188 -8.363281 8.828125 -7.84375 C 9.160156 -7.332031 9.328125 -6.726562 9.328125 -6.03125 C 9.328125 -5.332031 9.160156 -4.722656 8.828125 -4.203125 C 8.492188 -3.691406 8.015625 -3.296875 7.390625 -3.015625 C 6.773438 -2.742188 6.050781 -2.609375 5.21875 -2.609375 L 3.3125 -2.609375 L 3.3125 0 L 1.125 0 L 1.125 -9.46875 Z M 5.09375 -4.390625 C 5.75 -4.390625 6.25 -4.53125 6.59375 -4.8125 C 6.9375 -5.101562 7.109375 -5.507812 7.109375 -6.03125 C 7.109375 -6.5625 6.9375 -6.96875 6.59375 -7.25 C 6.25 -7.53125 5.75 -7.671875 5.09375 -7.671875 L 3.3125 -7.671875 L 3.3125 -4.390625 Z M 5.09375 -4.390625 "/></g></g></g><g fill="#322f30" fill-opacity="1"><g transform="translate(160.104525, 208.388577)"><g><path d="M 7.359375 -2.03125 L 2.953125 -2.03125 L 2.125 0 L -0.125 0 L 4.09375 -9.46875 L 6.25 -9.46875 L 10.484375 0 L 8.1875 0 Z M 6.65625 -3.6875 L 5.15625 -7.3125 L 3.65625 -3.6875 Z M 6.65625 -3.6875 "/></g></g></g><g fill="#322f30" fill-opacity="1"><g transform="translate(173.549895, 208.388577)"><g><path d="M 7.15625 0 L 5.328125 -2.640625 L 3.3125 -2.640625 L 3.3125 0 L 1.125 0 L 1.125 -9.46875 L 5.21875 -9.46875 C 6.050781 -9.46875 6.773438 -9.328125 7.390625 -9.046875 C 8.015625 -8.765625 8.492188 -8.363281 8.828125 -7.84375 C 9.160156 -7.332031 9.328125 -6.726562 9.328125 -6.03125 C 9.328125 -5.320312 9.15625 -4.710938 8.8125 -4.203125 C 8.476562 -3.703125 8 -3.316406 7.375 -3.046875 L 9.5 0 Z M 7.109375 -6.03125 C 7.109375 -6.5625 6.9375 -6.96875 6.59375 -7.25 C 6.25 -7.53125 5.75 -7.671875 5.09375 -7.671875 L 3.3125 -7.671875 L 3.3125 -4.375 L 5.09375 -4.375 C 5.75 -4.375 6.25 -4.519531 6.59375 -4.8125 C 6.9375 -5.101562 7.109375 -5.507812 7.109375 -6.03125 Z M 7.109375 -6.03125 "/></g></g></g><g fill="#322f30" fill-opacity="1"><g transform="translate(186.576374, 208.388577)"><g><path d="M 7.359375 -2.03125 L 2.953125 -2.03125 L 2.125 0 L -0.125 0 L 4.09375 -9.46875 L 6.25 -9.46875 L 10.484375 0 L 8.1875 0 Z M 6.65625 -3.6875 L 5.15625 -7.3125 L 3.65625 -3.6875 Z M 6.65625 -3.6875 "/></g></g></g><g fill="#322f30" fill-opacity="1"><g transform="translate(200.021735, 208.388577)"><g/></g></g><g fill="#322f30" fill-opacity="1"><g transform="translate(206.940356, 208.388577)"><g><path d="M 4.234375 0.15625 C 3.484375 0.15625 2.757812 0.0546875 2.0625 -0.140625 C 1.363281 -0.347656 0.800781 -0.613281 0.375 -0.9375 L 1.125 -2.578125 C 1.53125 -2.285156 2.007812 -2.046875 2.5625 -1.859375 C 3.125 -1.679688 3.6875 -1.59375 4.25 -1.59375 C 4.863281 -1.59375 5.316406 -1.6875 5.609375 -1.875 C 5.910156 -2.0625 6.0625 -2.304688 6.0625 -2.609375 C 6.0625 -2.835938 5.972656 -3.023438 5.796875 -3.171875 C 5.628906 -3.316406 5.40625 -3.429688 5.125 -3.515625 C 4.851562 -3.609375 4.484375 -3.710938 4.015625 -3.828125 C 3.296875 -3.992188 2.703125 -4.160156 2.234375 -4.328125 C 1.773438 -4.503906 1.378906 -4.78125 1.046875 -5.15625 C 0.722656 -5.539062 0.5625 -6.046875 0.5625 -6.671875 C 0.5625 -7.222656 0.707031 -7.722656 1 -8.171875 C 1.300781 -8.617188 1.75 -8.972656 2.34375 -9.234375 C 2.945312 -9.492188 3.6875 -9.625 4.5625 -9.625 C 5.15625 -9.625 5.738281 -9.550781 6.3125 -9.40625 C 6.894531 -9.257812 7.40625 -9.050781 7.84375 -8.78125 L 7.15625 -7.125 C 6.289062 -7.613281 5.421875 -7.859375 4.546875 -7.859375 C 3.929688 -7.859375 3.476562 -7.757812 3.1875 -7.5625 C 2.894531 -7.363281 2.75 -7.101562 2.75 -6.78125 C 2.75 -6.457031 2.914062 -6.21875 3.25 -6.0625 C 3.582031 -5.90625 4.097656 -5.75 4.796875 -5.59375 C 5.515625 -5.425781 6.101562 -5.253906 6.5625 -5.078125 C 7.03125 -4.910156 7.425781 -4.640625 7.75 -4.265625 C 8.082031 -3.898438 8.25 -3.398438 8.25 -2.765625 C 8.25 -2.222656 8.097656 -1.726562 7.796875 -1.28125 C 7.492188 -0.84375 7.039062 -0.492188 6.4375 -0.234375 C 5.832031 0.0234375 5.097656 0.15625 4.234375 0.15625 Z M 4.234375 0.15625 "/></g></g></g><g fill="#322f30" fill-opacity="1"><g transform="translate(218.656062, 208.388577)"><g><path d="M 8.453125 -1.75 L 8.453125 0 L 1.125 0 L 1.125 -9.46875 L 8.265625 -9.46875 L 8.265625 -7.703125 L 3.296875 -7.703125 L 3.296875 -5.65625 L 7.6875 -5.65625 L 7.6875 -3.953125 L 3.296875 -3.953125 L 3.296875 -1.75 Z M 8.453125 -1.75 "/></g></g></g><g fill="#322f30" fill-opacity="1"><g transform="translate(230.817704, 208.388577)"><g><path d="M 5.328125 0.15625 C 3.972656 0.15625 2.921875 -0.210938 2.171875 -0.953125 C 1.421875 -1.703125 1.046875 -2.769531 1.046875 -4.15625 L 1.046875 -9.46875 L 3.234375 -9.46875 L 3.234375 -4.25 C 3.234375 -2.550781 3.9375 -1.703125 5.34375 -1.703125 C 6.019531 -1.703125 6.539062 -1.90625 6.90625 -2.3125 C 7.269531 -2.726562 7.453125 -3.375 7.453125 -4.25 L 7.453125 -9.46875 L 9.609375 -9.46875 L 9.609375 -4.15625 C 9.609375 -2.769531 9.234375 -1.703125 8.484375 -0.953125 C 7.734375 -0.210938 6.679688 0.15625 5.328125 0.15625 Z M 5.328125 0.15625 "/></g></g></g><g fill="#322f30" fill-opacity="1"><g transform="translate(244.560356, 208.388577)"><g/></g></g><g fill="#322f30" fill-opacity="1"><g transform="translate(251.478977, 208.388577)"><g><path d="M 4.234375 0.15625 C 3.484375 0.15625 2.757812 0.0546875 2.0625 -0.140625 C 1.363281 -0.347656 0.800781 -0.613281 0.375 -0.9375 L 1.125 -2.578125 C 1.53125 -2.285156 2.007812 -2.046875 2.5625 -1.859375 C 3.125 -1.679688 3.6875 -1.59375 4.25 -1.59375 C 4.863281 -1.59375 5.316406 -1.6875 5.609375 -1.875 C 5.910156 -2.0625 6.0625 -2.304688 6.0625 -2.609375 C 6.0625 -2.835938 5.972656 -3.023438 5.796875 -3.171875 C 5.628906 -3.316406 5.40625 -3.429688 5.125 -3.515625 C 4.851562 -3.609375 4.484375 -3.710938 4.015625 -3.828125 C 3.296875 -3.992188 2.703125 -4.160156 2.234375 -4.328125 C 1.773438 -4.503906 1.378906 -4.78125 1.046875 -5.15625 C 0.722656 -5.539062 0.5625 -6.046875 0.5625 -6.671875 C 0.5625 -7.222656 0.707031 -7.722656 1 -8.171875 C 1.300781 -8.617188 1.75 -8.972656 2.34375 -9.234375 C 2.945312 -9.492188 3.6875 -9.625 4.5625 -9.625 C 5.15625 -9.625 5.738281 -9.550781 6.3125 -9.40625 C 6.894531 -9.257812 7.40625 -9.050781 7.84375 -8.78125 L 7.15625 -7.125 C 6.289062 -7.613281 5.421875 -7.859375 4.546875 -7.859375 C 3.929688 -7.859375 3.476562 -7.757812 3.1875 -7.5625 C 2.894531 -7.363281 2.75 -7.101562 2.75 -6.78125 C 2.75 -6.457031 2.914062 -6.21875 3.25 -6.0625 C 3.582031 -5.90625 4.097656 -5.75 4.796875 -5.59375 C 5.515625 -5.425781 6.101562 -5.253906 6.5625 -5.078125 C 7.03125 -4.910156 7.425781 -4.640625 7.75 -4.265625 C 8.082031 -3.898438 8.25 -3.398438 8.25 -2.765625 C 8.25 -2.222656 8.097656 -1.726562 7.796875 -1.28125 C 7.492188 -0.84375 7.039062 -0.492188 6.4375 -0.234375 C 5.832031 0.0234375 5.097656 0.15625 4.234375 0.15625 Z M 4.234375 0.15625 "/></g></g></g><g fill="#322f30" fill-opacity="1"><g transform="translate(263.194683, 208.388577)"><g><path d="M 5.328125 0.15625 C 3.972656 0.15625 2.921875 -0.210938 2.171875 -0.953125 C 1.421875 -1.703125 1.046875 -2.769531 1.046875 -4.15625 L 1.046875 -9.46875 L 3.234375 -9.46875 L 3.234375 -4.25 C 3.234375 -2.550781 3.9375 -1.703125 5.34375 -1.703125 C 6.019531 -1.703125 6.539062 -1.90625 6.90625 -2.3125 C 7.269531 -2.726562 7.453125 -3.375 7.453125 -4.25 L 7.453125 -9.46875 L 9.609375 -9.46875 L 9.609375 -4.15625 C 9.609375 -2.769531 9.234375 -1.703125 8.484375 -0.953125 C 7.734375 -0.210938 6.679688 0.15625 5.328125 0.15625 Z M 5.328125 0.15625 "/></g></g></g><g fill="#322f30" fill-opacity="1"><g transform="translate(276.937335, 208.388577)"><g><path d="M 5.65625 0.15625 C 4.6875 0.15625 3.8125 -0.0507812 3.03125 -0.46875 C 2.25 -0.882812 1.632812 -1.460938 1.1875 -2.203125 C 0.75 -2.953125 0.53125 -3.796875 0.53125 -4.734375 C 0.53125 -5.671875 0.75 -6.507812 1.1875 -7.25 C 1.632812 -7.988281 2.25 -8.566406 3.03125 -8.984375 C 3.8125 -9.410156 4.6875 -9.625 5.65625 -9.625 C 6.476562 -9.625 7.21875 -9.476562 7.875 -9.1875 C 8.539062 -8.90625 9.101562 -8.492188 9.5625 -7.953125 L 8.15625 -6.65625 C 7.507812 -7.394531 6.710938 -7.765625 5.765625 -7.765625 C 5.179688 -7.765625 4.660156 -7.632812 4.203125 -7.375 C 3.742188 -7.113281 3.382812 -6.753906 3.125 -6.296875 C 2.875 -5.835938 2.75 -5.316406 2.75 -4.734375 C 2.75 -4.148438 2.875 -3.625 3.125 -3.15625 C 3.382812 -2.695312 3.742188 -2.335938 4.203125 -2.078125 C 4.660156 -1.828125 5.179688 -1.703125 5.765625 -1.703125 C 6.710938 -1.703125 7.507812 -2.078125 8.15625 -2.828125 L 9.5625 -1.53125 C 9.101562 -0.976562 8.539062 -0.554688 7.875 -0.265625 C 7.207031 0.015625 6.46875 0.15625 5.65625 0.15625 Z M 5.65625 0.15625 "/></g></g></g><g fill="#322f30" fill-opacity="1"><g transform="translate(289.936777, 208.388577)"><g><path d="M 8.453125 -1.75 L 8.453125 0 L 1.125 0 L 1.125 -9.46875 L 8.265625 -9.46875 L 8.265625 -7.703125 L 3.296875 -7.703125 L 3.296875 -5.65625 L 7.6875 -5.65625 L 7.6875 -3.953125 L 3.296875 -3.953125 L 3.296875 -1.75 Z M 8.453125 -1.75 "/></g></g></g><g fill="#322f30" fill-opacity="1"><g transform="translate(302.098419, 208.388577)"><g><path d="M 4.234375 0.15625 C 3.484375 0.15625 2.757812 0.0546875 2.0625 -0.140625 C 1.363281 -0.347656 0.800781 -0.613281 0.375 -0.9375 L 1.125 -2.578125 C 1.53125 -2.285156 2.007812 -2.046875 2.5625 -1.859375 C 3.125 -1.679688 3.6875 -1.59375 4.25 -1.59375 C 4.863281 -1.59375 5.316406 -1.6875 5.609375 -1.875 C 5.910156 -2.0625 6.0625 -2.304688 6.0625 -2.609375 C 6.0625 -2.835938 5.972656 -3.023438 5.796875 -3.171875 C 5.628906 -3.316406 5.40625 -3.429688 5.125 -3.515625 C 4.851562 -3.609375 4.484375 -3.710938 4.015625 -3.828125 C 3.296875 -3.992188 2.703125 -4.160156 2.234375 -4.328125 C 1.773438 -4.503906 1.378906 -4.78125 1.046875 -5.15625 C 0.722656 -5.539062 0.5625 -6.046875 0.5625 -6.671875 C 0.5625 -7.222656 0.707031 -7.722656 1 -8.171875 C 1.300781 -8.617188 1.75 -8.972656 2.34375 -9.234375 C 2.945312 -9.492188 3.6875 -9.625 4.5625 -9.625 C 5.15625 -9.625 5.738281 -9.550781 6.3125 -9.40625 C 6.894531 -9.257812 7.40625 -9.050781 7.84375 -8.78125 L 7.15625 -7.125 C 6.289062 -7.613281 5.421875 -7.859375 4.546875 -7.859375 C 3.929688 -7.859375 3.476562 -7.757812 3.1875 -7.5625 C 2.894531 -7.363281 2.75 -7.101562 2.75 -6.78125 C 2.75 -6.457031 2.914062 -6.21875 3.25 -6.0625 C 3.582031 -5.90625 4.097656 -5.75 4.796875 -5.59375 C 5.515625 -5.425781 6.101562 -5.253906 6.5625 -5.078125 C 7.03125 -4.910156 7.425781 -4.640625 7.75 -4.265625 C 8.082031 -3.898438 8.25 -3.398438 8.25 -2.765625 C 8.25 -2.222656 8.097656 -1.726562 7.796875 -1.28125 C 7.492188 -0.84375 7.039062 -0.492188 6.4375 -0.234375 C 5.832031 0.0234375 5.097656 0.15625 4.234375 0.15625 Z M 4.234375 0.15625 "/></g></g></g><g fill="#322f30" fill-opacity="1"><g transform="translate(313.814125, 208.388577)"><g><path d="M 4.234375 0.15625 C 3.484375 0.15625 2.757812 0.0546875 2.0625 -0.140625 C 1.363281 -0.347656 0.800781 -0.613281 0.375 -0.9375 L 1.125 -2.578125 C 1.53125 -2.285156 2.007812 -2.046875 2.5625 -1.859375 C 3.125 -1.679688 3.6875 -1.59375 4.25 -1.59375 C 4.863281 -1.59375 5.316406 -1.6875 5.609375 -1.875 C 5.910156 -2.0625 6.0625 -2.304688 6.0625 -2.609375 C 6.0625 -2.835938 5.972656 -3.023438 5.796875 -3.171875 C 5.628906 -3.316406 5.40625 -3.429688 5.125 -3.515625 C 4.851562 -3.609375 4.484375 -3.710938 4.015625 -3.828125 C 3.296875 -3.992188 2.703125 -4.160156 2.234375 -4.328125 C 1.773438 -4.503906 1.378906 -4.78125 1.046875 -5.15625 C 0.722656 -5.539062 0.5625 -6.046875 0.5625 -6.671875 C 0.5625 -7.222656 0.707031 -7.722656 1 -8.171875 C 1.300781 -8.617188 1.75 -8.972656 2.34375 -9.234375 C 2.945312 -9.492188 3.6875 -9.625 4.5625 -9.625 C 5.15625 -9.625 5.738281 -9.550781 6.3125 -9.40625 C 6.894531 -9.257812 7.40625 -9.050781 7.84375 -8.78125 L 7.15625 -7.125 C 6.289062 -7.613281 5.421875 -7.859375 4.546875 -7.859375 C 3.929688 -7.859375 3.476562 -7.757812 3.1875 -7.5625 C 2.894531 -7.363281 2.75 -7.101562 2.75 -6.78125 C 2.75 -6.457031 2.914062 -6.21875 3.25 -6.0625 C 3.582031 -5.90625 4.097656 -5.75 4.796875 -5.59375 C 5.515625 -5.425781 6.101562 -5.253906 6.5625 -5.078125 C 7.03125 -4.910156 7.425781 -4.640625 7.75 -4.265625 C 8.082031 -3.898438 8.25 -3.398438 8.25 -2.765625 C 8.25 -2.222656 8.097656 -1.726562 7.796875 -1.28125 C 7.492188 -0.84375 7.039062 -0.492188 6.4375 -0.234375 C 5.832031 0.0234375 5.097656 0.15625 4.234375 0.15625 Z M 4.234375 0.15625 "/></g></g></g><g fill="#322f30" fill-opacity="1"><g transform="translate(325.529831, 208.388577)"><g><path d="M 5.703125 0.15625 C 4.722656 0.15625 3.835938 -0.0507812 3.046875 -0.46875 C 2.253906 -0.894531 1.632812 -1.476562 1.1875 -2.21875 C 0.75 -2.96875 0.53125 -3.804688 0.53125 -4.734375 C 0.53125 -5.660156 0.75 -6.492188 1.1875 -7.234375 C 1.632812 -7.984375 2.253906 -8.566406 3.046875 -8.984375 C 3.835938 -9.410156 4.722656 -9.625 5.703125 -9.625 C 6.679688 -9.625 7.5625 -9.410156 8.34375 -8.984375 C 9.132812 -8.566406 9.753906 -7.984375 10.203125 -7.234375 C 10.648438 -6.492188 10.875 -5.660156 10.875 -4.734375 C 10.875 -3.804688 10.648438 -2.96875 10.203125 -2.21875 C 9.753906 -1.476562 9.132812 -0.894531 8.34375 -0.46875 C 7.5625 -0.0507812 6.679688 0.15625 5.703125 0.15625 Z M 5.703125 -1.703125 C 6.265625 -1.703125 6.769531 -1.828125 7.21875 -2.078125 C 7.664062 -2.335938 8.015625 -2.695312 8.265625 -3.15625 C 8.523438 -3.625 8.65625 -4.148438 8.65625 -4.734375 C 8.65625 -5.316406 8.523438 -5.835938 8.265625 -6.296875 C 8.015625 -6.753906 7.664062 -7.113281 7.21875 -7.375 C 6.769531 -7.632812 6.265625 -7.765625 5.703125 -7.765625 C 5.140625 -7.765625 4.632812 -7.632812 4.1875 -7.375 C 3.738281 -7.113281 3.382812 -6.753906 3.125 -6.296875 C 2.875 -5.835938 2.75 -5.316406 2.75 -4.734375 C 2.75 -4.148438 2.875 -3.625 3.125 -3.15625 C 3.382812 -2.695312 3.738281 -2.335938 4.1875 -2.078125 C 4.632812 -1.828125 5.140625 -1.703125 5.703125 -1.703125 Z M 5.703125 -1.703125 "/></g></g></g></svg>